# xmcd
#
# Track frame offsets: 
#        150
#        6174
#        18429
#        25726
#        54907
#        63913
#        79302
#        98183
#        125692
#        155590
#        194946
#        198510
#        217217
#        217734
#        279068
#        312444
#
# Disc length: 4443 seconds
#
# Revision: 0
# Processed by: cddbd v1.5.2PL0 Copyright (c) Steve Scherf et al.
# Submitted via: ExactAudioCopy v0.95b3
#
DISCID=e4115910
DTITLE=The Beatles  - Turn Left At Greenland - Disc 1
DYEAR=1900
DGENRE=
TTITLE0=MBS The World Today
TTITLE1=Fans At Kennedy Airport
TTITLE2=WINS Paul Parker At Kennedy Airport
TTITLE3=Kennedy Airport Press Conference
TTITLE4=WINS Jim Gordon At Plaza Hotel
TTITLE5=Fans At Plaza Hotel
TTITLE6='Meet The Beatles'
TTITLE7='Saturday Club' With Brian Matthew
TTITLE8=In The Beatles' Suite At Plaza Hotel
TTITLE9=Malcohm Davies 'Saturday Club' Report
TTITLE10=WOLF Interview W Bud Ballou
TTITLE11=Driving To 'Ed Sullivan Show' Rehearsal
TTITLE12='The Ed Sullivan Show' Promo
TTITLE13=Ed Rudy Phone Interview W George
TTITLE14='Swingin' Soiree'
TTITLE15=WMCA Promos
EXTD=
EXTT0=
EXTT1=
EXTT2=
EXTT3=
EXTT4=
EXTT5=
EXTT6=
EXTT7=
EXTT8=
EXTT9=
EXTT10=
EXTT11=
EXTT12=
EXTT13=
EXTT14=
EXTT15=
PLAYORDER=
